<svg width="196" height="47" viewBox="0 0 196 47" fill="none" xmlns="http://www.w3.org/2000/svg">
<path d="M3.52 46.936C2.112 46.936 1.408 46.552 1.408 45.784V19.432C1.408 17.352 1.312 15.832 1.12 14.872C0.96 13.88 0.88 13.304 0.88 13.144C0.88 12.728 1.296 12.424 2.128 12.232C2.992 12.04 3.76 11.944 4.432 11.944C4.912 11.944 5.248 12.152 5.44 12.568C5.632 12.984 5.776 13.464 5.872 14.008C5.968 14.552 6.032 14.92 6.064 15.112C6.736 13.96 7.536 13.08 8.464 12.472C9.424 11.864 10.464 11.56 11.584 11.56C13.088 11.56 14.4 12.104 15.52 13.192C16.672 14.248 17.552 15.768 18.16 17.752C18.768 19.704 19.072 21.976 19.072 24.568C19.072 28.6 18.352 31.736 16.912 33.976C15.472 36.216 13.536 37.336 11.104 37.336C10.08 37.336 9.184 37.144 8.416 36.76C7.68 36.376 6.992 35.848 6.352 35.176V45.784C6.352 46.552 5.648 46.936 4.24 46.936H3.52ZM9.856 33.16C12.576 33.16 13.936 30.296 13.936 24.568C13.936 21.688 13.616 19.496 12.976 17.992C12.368 16.488 11.456 15.736 10.24 15.736C9.536 15.736 8.848 15.992 8.176 16.504C7.504 17.016 6.896 17.736 6.352 18.664V31.432C7.344 32.584 8.512 33.16 9.856 33.16ZM26.818 37.096C25.41 37.096 24.706 36.696 24.706 35.896V2.056C24.706 1.256 25.41 0.855999 26.818 0.855999H27.682C29.058 0.855999 29.746 1.256 29.746 2.056V14.824C30.45 13.832 31.298 13.048 32.29 12.472C33.314 11.864 34.434 11.56 35.65 11.56C37.378 11.56 38.786 12.168 39.874 13.384C40.994 14.6 41.554 16.424 41.554 18.856V35.896C41.554 36.696 40.866 37.096 39.49 37.096H38.674C37.266 37.096 36.562 36.696 36.562 35.896V19.576C36.562 17.048 35.57 15.784 33.586 15.784C32.658 15.784 31.842 16.104 31.138 16.744C30.466 17.352 30.002 17.976 29.746 18.616V35.896C29.746 36.696 29.042 37.096 27.634 37.096H26.818ZM56.0189 37.336C52.9469 37.336 50.6109 36.248 49.0109 34.072C47.4109 31.864 46.6109 28.68 46.6109 24.52C46.6109 20.36 47.4109 17.16 49.0109 14.92C50.6429 12.68 52.9789 11.56 56.0189 11.56C59.0909 11.56 61.4109 12.68 62.9789 14.92C64.5789 17.128 65.3789 20.328 65.3789 24.52C65.3789 28.68 64.5789 31.864 62.9789 34.072C61.4109 36.248 59.0909 37.336 56.0189 37.336ZM55.9709 33.256C57.4749 33.256 58.5629 32.552 59.2349 31.144C59.9389 29.736 60.2909 27.512 60.2909 24.472C60.2909 21.4 59.9389 19.16 59.2349 17.752C58.5629 16.344 57.4749 15.64 55.9709 15.64C54.4989 15.64 53.4269 16.344 52.7549 17.752C52.0829 19.16 51.7469 21.4 51.7469 24.472C51.7469 27.544 52.0829 29.784 52.7549 31.192C53.4269 32.568 54.4989 33.256 55.9709 33.256ZM76.8779 37.336C75.3419 37.336 74.0299 36.856 72.9419 35.896C71.8539 34.904 71.3099 33.272 71.3099 31V15.976H70.0619C69.6779 15.976 69.3899 15.848 69.1979 15.592C69.0379 15.304 68.9579 14.856 68.9579 14.248V13.624C68.9579 13.016 69.0379 12.584 69.1979 12.328C69.3899 12.04 69.6779 11.896 70.0619 11.896H71.3099L71.9339 7C71.9979 6.2 72.6059 5.8 73.7579 5.8H74.5259C75.6779 5.8 76.2539 6.2 76.2539 7V11.896H79.0379C79.4219 11.896 79.6939 12.04 79.8539 12.328C80.0139 12.584 80.0939 13.016 80.0939 13.624V14.248C80.0939 14.856 80.0139 15.304 79.8539 15.592C79.6939 15.848 79.4219 15.976 79.0379 15.976H76.2539V30.616C76.2539 31.608 76.3979 32.296 76.6859 32.68C76.9739 33.064 77.3899 33.256 77.9339 33.256C78.2539 33.256 78.5579 33.224 78.8459 33.16C79.1339 33.064 79.3419 33.016 79.4699 33.016C79.7899 33.016 80.0459 33.368 80.2379 34.072C80.4619 34.744 80.5739 35.272 80.5739 35.656C80.5739 36.264 80.1739 36.696 79.3739 36.952C78.5739 37.208 77.7419 37.336 76.8779 37.336ZM92.722 37.336C89.65 37.336 87.314 36.248 85.714 34.072C84.114 31.864 83.314 28.68 83.314 24.52C83.314 20.36 84.114 17.16 85.714 14.92C87.346 12.68 89.682 11.56 92.722 11.56C95.794 11.56 98.114 12.68 99.682 14.92C101.282 17.128 102.082 20.328 102.082 24.52C102.082 28.68 101.282 31.864 99.682 34.072C98.114 36.248 95.794 37.336 92.722 37.336ZM92.674 33.256C94.178 33.256 95.266 32.552 95.938 31.144C96.642 29.736 96.994 27.512 96.994 24.472C96.994 21.4 96.642 19.16 95.938 17.752C95.266 16.344 94.178 15.64 92.674 15.64C91.202 15.64 90.13 16.344 89.458 17.752C88.786 19.16 88.45 21.4 88.45 24.472C88.45 27.544 88.786 29.784 89.458 31.192C90.13 32.568 91.202 33.256 92.674 33.256ZM129.805 11.56C131.565 11.56 132.973 12.184 134.029 13.432C135.117 14.68 135.661 16.552 135.661 19.048V35.896C135.661 36.696 134.973 37.096 133.597 37.096H132.781C131.373 37.096 130.669 36.696 130.669 35.896V19.768C130.669 17.112 129.725 15.784 127.837 15.784C127.037 15.784 126.301 16.056 125.629 16.6C124.989 17.112 124.477 17.752 124.093 18.52V19.096V35.896C124.093 36.696 123.405 37.096 122.029 37.096H121.165C119.757 37.096 119.053 36.696 119.053 35.896V19.768C119.053 17.112 118.109 15.784 116.221 15.784C115.325 15.784 114.541 16.088 113.869 16.696C113.197 17.304 112.733 17.944 112.477 18.616V35.896C112.477 36.696 111.789 37.096 110.413 37.096H109.549C108.173 37.096 107.485 36.696 107.485 35.896V19.432C107.485 17.32 107.405 15.784 107.245 14.824C107.085 13.864 107.005 13.32 107.005 13.192C107.005 12.776 107.437 12.472 108.301 12.28C109.197 12.056 109.949 11.944 110.557 11.944C111.069 11.944 111.405 12.152 111.565 12.568C111.757 12.952 111.901 13.432 111.997 14.008C112.093 14.552 112.157 14.952 112.189 15.208C112.861 14.12 113.709 13.24 114.733 12.568C115.789 11.896 116.941 11.56 118.189 11.56C119.437 11.56 120.525 11.864 121.453 12.472C122.381 13.048 123.069 13.944 123.517 15.16C124.253 14.104 125.165 13.24 126.253 12.568C127.373 11.896 128.557 11.56 129.805 11.56ZM147.84 37.336C145.696 37.336 144 36.68 142.752 35.368C141.536 34.056 140.928 32.216 140.928 29.848C140.928 26.744 142.048 24.504 144.288 23.128C146.528 21.752 149.552 21.048 153.36 21.016V19.192C153.36 18.136 153.056 17.288 152.448 16.648C151.84 15.976 150.864 15.64 149.52 15.64C148.528 15.64 147.648 15.768 146.88 16.024C146.144 16.248 145.472 16.52 144.864 16.84C144.256 17.128 143.888 17.272 143.76 17.272C143.408 17.272 142.992 16.904 142.512 16.168C142.064 15.432 141.84 14.872 141.84 14.488C141.84 14.04 142.208 13.592 142.944 13.144C143.712 12.696 144.704 12.328 145.92 12.04C147.136 11.72 148.4 11.56 149.712 11.56C152.496 11.56 154.608 12.232 156.048 13.576C157.52 14.92 158.256 16.776 158.256 19.144V29.512C158.256 31.656 158.352 33.208 158.544 34.168C158.736 35.128 158.832 35.672 158.832 35.8C158.832 36.248 158.432 36.568 157.632 36.76C156.864 36.952 156.144 37.048 155.472 37.048C154.992 37.048 154.64 36.84 154.416 36.424C154.192 35.976 153.968 35.272 153.744 34.312C152.176 36.328 150.208 37.336 147.84 37.336ZM149.04 33.112C150.832 33.112 152.272 32.312 153.36 30.712V24.712C151.024 24.744 149.168 25.112 147.792 25.816C146.448 26.488 145.776 27.768 145.776 29.656C145.776 31.96 146.864 33.112 149.04 33.112ZM171.237 37.336C169.701 37.336 168.389 36.856 167.301 35.896C166.213 34.904 165.669 33.272 165.669 31V15.976H164.421C164.037 15.976 163.749 15.848 163.557 15.592C163.397 15.304 163.317 14.856 163.317 14.248V13.624C163.317 13.016 163.397 12.584 163.557 12.328C163.749 12.04 164.037 11.896 164.421 11.896H165.669L166.293 7C166.357 6.2 166.965 5.8 168.117 5.8H168.885C170.037 5.8 170.613 6.2 170.613 7V11.896H173.397C173.781 11.896 174.053 12.04 174.213 12.328C174.373 12.584 174.453 13.016 174.453 13.624V14.248C174.453 14.856 174.373 15.304 174.213 15.592C174.053 15.848 173.781 15.976 173.397 15.976H170.613V30.616C170.613 31.608 170.757 32.296 171.045 32.68C171.333 33.064 171.749 33.256 172.293 33.256C172.613 33.256 172.917 33.224 173.205 33.16C173.493 33.064 173.701 33.016 173.829 33.016C174.149 33.016 174.405 33.368 174.597 34.072C174.821 34.744 174.933 35.272 174.933 35.656C174.933 36.264 174.533 36.696 173.733 36.952C172.933 37.208 172.101 37.336 171.237 37.336ZM187.945 37.336C184.489 37.336 181.913 36.28 180.217 34.168C178.521 32.056 177.673 28.872 177.673 24.616C177.673 20.232 178.489 16.968 180.121 14.824C181.785 12.648 184.169 11.56 187.273 11.56C190.153 11.56 192.297 12.648 193.705 14.824C195.145 16.968 195.865 20.104 195.865 24.232C195.865 24.552 195.625 25 195.145 25.576C194.665 26.152 194.281 26.44 193.993 26.44H182.857C182.985 28.84 183.449 30.584 184.249 31.672C185.081 32.728 186.329 33.256 187.993 33.256C189.049 33.256 189.929 33.112 190.633 32.824C191.337 32.536 191.929 32.232 192.409 31.912C192.921 31.56 193.225 31.384 193.321 31.384C193.705 31.384 194.121 31.752 194.569 32.488C195.017 33.224 195.241 33.784 195.241 34.168C195.241 34.648 194.873 35.144 194.137 35.656C193.433 36.136 192.505 36.536 191.353 36.856C190.233 37.176 189.097 37.336 187.945 37.336ZM190.921 22.744C190.921 20.312 190.617 18.504 190.009 17.32C189.401 16.136 188.457 15.544 187.177 15.544C185.801 15.544 184.761 16.12 184.057 17.272C183.353 18.424 182.937 20.248 182.809 22.744H190.921Z" fill="black"/>
</svg>
